<svg width="18" height="12" viewBox="0 0 18 12" fill="none" xmlns="http://www.w3.org/2000/svg">
<path d="M0.876953 5.25C0.46274 5.25 0.126953 5.58579 0.126953 6C0.126953 6.41421 0.462739 6.75 0.876953 6.75L0.876953 5.25ZM17.4073 6.53033C17.7002 6.23744 17.7002 5.76256 17.4073 5.46967L12.6343 0.6967C12.3414 0.403807 11.8665 0.403807 11.5737 0.6967C11.2808 0.989593 11.2808 1.46447 11.5737 1.75736L15.8163 6L11.5737 10.2426C11.2808 10.5355 11.2808 11.0104 11.5737 11.3033C11.8665 11.5962 12.3414 11.5962 12.6343 11.3033L17.4073 6.53033ZM0.876953 6.75L16.877 6.75L16.877 5.25L0.876953 5.25L0.876953 6.75Z" fill="#1C3A57"/>
</svg>
