<svg width="37" height="37" viewBox="0 0 37 37" fill="none" xmlns="http://www.w3.org/2000/svg">
<g clip-path="url(#clip0_252_2067)">
<path d="M11.6246 28.9014V13.5069H6.40667V28.9014H11.6246ZM9.01631 11.4037C10.8359 11.4037 11.9685 10.2216 11.9685 8.74435C11.9346 7.23378 10.836 6.08447 9.05084 6.08447C7.26599 6.08447 6.09882 7.23381 6.09882 8.74435C6.09882 10.2217 7.23114 11.4037 8.98224 11.4037H9.01614H9.01631ZM14.5127 28.9014H19.7306V20.3043C19.7306 19.8442 19.7645 19.3846 19.9023 19.0557C20.2795 18.1364 21.1381 17.1843 22.5795 17.1843C24.4677 17.1843 25.223 18.5961 25.223 20.6655V28.9013H30.4406V20.0742C30.4406 15.3456 27.8664 13.1454 24.4333 13.1454C21.6184 13.1454 20.3825 14.6884 19.6959 15.7392H19.7307V13.5065H14.5128C14.5813 14.9511 14.5128 28.9011 14.5128 28.9011L14.5127 28.9014Z" fill="white"/>
</g>
<defs>
<clipPath id="clip0_252_2067">
<rect width="24.338" height="22.8169" fill="white" transform="translate(6.0986 6.08447)"/>
</clipPath>
</defs>
</svg>
