<svg width="38" height="37" viewBox="0 0 38 37" fill="none" xmlns="http://www.w3.org/2000/svg">
<g clip-path="url(#clip0_252_2071)">
<path d="M18.7802 12.105C15.3251 12.105 12.5382 14.8483 12.5382 18.2495C12.5382 21.6506 15.3251 24.394 18.7802 24.394C22.2354 24.394 25.0223 21.6506 25.0223 18.2495C25.0223 14.8483 22.2354 12.105 18.7802 12.105ZM18.7802 22.2442C16.5474 22.2442 14.7221 20.4527 14.7221 18.2495C14.7221 16.0462 16.542 14.2547 18.7802 14.2547C21.0185 14.2547 22.8384 16.0462 22.8384 18.2495C22.8384 20.4527 21.013 22.2442 18.7802 22.2442ZM26.7335 11.8536C26.7335 12.6504 26.0816 13.2868 25.2776 13.2868C24.4682 13.2868 23.8217 12.6451 23.8217 11.8536C23.8217 11.0622 24.4736 10.4204 25.2776 10.4204C26.0816 10.4204 26.7335 11.0622 26.7335 11.8536ZM30.8677 13.3082C30.7754 11.3884 30.3299 9.6878 28.9011 8.2867C27.4778 6.8856 25.7502 6.44709 23.7999 6.35083C21.7899 6.23853 15.7651 6.23853 13.7551 6.35083C11.8102 6.44174 10.0826 6.88025 8.65388 8.28135C7.22511 9.68245 6.78507 11.383 6.68728 13.3028C6.57319 15.2815 6.57319 21.2121 6.68728 23.1908C6.77963 25.1106 7.22511 26.8112 8.65388 28.2123C10.0826 29.6134 11.8048 30.0519 13.7551 30.1481C15.7651 30.2604 21.7899 30.2604 23.7999 30.1481C25.7502 30.0572 27.4778 29.6187 28.9011 28.2123C30.3245 26.8112 30.77 25.1106 30.8677 23.1908C30.9818 21.2121 30.9818 15.2868 30.8677 13.3082ZM28.271 25.3138C27.8472 26.362 27.0269 27.1695 25.9567 27.5919C24.3541 28.2176 20.5513 28.0732 18.7802 28.0732C17.0092 28.0732 13.201 28.2123 11.6038 27.5919C10.539 27.1748 9.71866 26.3673 9.28949 25.3138C8.65388 23.7362 8.80056 19.9928 8.80056 18.2495C8.80056 16.5061 8.65931 12.7574 9.28949 11.1852C9.71323 10.137 10.5336 9.3295 11.6038 8.90703C13.2064 8.28135 17.0092 8.42574 18.7802 8.42574C20.5513 8.42574 24.3595 8.2867 25.9567 8.90703C27.0215 9.32415 27.8418 10.1317 28.271 11.1852C28.9066 12.7627 28.7599 16.5061 28.7599 18.2495C28.7599 19.9928 28.9066 23.7416 28.271 25.3138Z" fill="white"/>
</g>
<defs>
<clipPath id="clip0_252_2071">
<rect width="24.338" height="27.3803" fill="white" transform="translate(6.60562 4.56348)"/>
</clipPath>
</defs>
</svg>
