<svg width="38" height="37" viewBox="0 0 38 37" fill="none" xmlns="http://www.w3.org/2000/svg">
<g clip-path="url(#clip0_252_2063)">
<path d="M32.4507 10.1979C31.4254 10.6306 30.3379 10.9147 29.2243 11.0406C30.3843 10.3783 31.2749 9.32947 31.6942 8.07985C30.5916 8.70322 29.3852 9.14242 28.1272 9.37848C27.1025 8.33846 25.6427 7.68848 24.0269 7.68848C20.9246 7.68848 18.4093 10.0846 18.4093 13.0399C18.4093 13.4594 18.4591 13.8678 18.5548 14.2596C13.8862 14.0363 9.74712 11.9059 6.97647 8.66808C6.49303 9.45847 6.21602 10.3779 6.21602 11.3585C6.21602 13.2152 7.20781 14.8531 8.71501 15.8129C7.82295 15.7862 6.95053 15.5567 6.17057 15.1434C6.17024 15.1658 6.17024 15.1883 6.17024 15.2108C6.17024 17.8037 8.10654 19.9667 10.6762 20.4583C9.84903 20.6726 8.98135 20.704 8.13949 20.55C8.85426 22.6761 10.9289 24.2233 13.3869 24.2666C11.4644 25.7018 9.04218 26.5574 6.41046 26.5574C5.95698 26.5574 5.50991 26.5321 5.07043 26.4827C7.55637 28.0011 10.5091 28.887 13.6813 28.887C24.0138 28.887 29.6639 20.7324 29.6639 13.6606C29.6639 13.4284 29.6586 13.1977 29.6477 12.9682C30.7474 12.2108 31.6966 11.2727 32.4507 10.1979Z" fill="white"/>
</g>
<defs>
<clipPath id="clip0_252_2063">
<rect width="27.3803" height="21.2958" fill="white" transform="translate(5.07043 7.60547)"/>
</clipPath>
</defs>
</svg>
